#!OML:ASF E:\id_vita\Project 1\Capture day 1\Session 1\Female.ASF
:FULLY-SPECIFIED
:DEGREES
1162
root 32.7741 16.9086 -9.61491 -150.679 63.064 181.615
lowerback -14.5468 1.18655 -6.63173
upperback -7.54643 3.01772 -0.615236
thorax -0.14408 1.95723 3.50359
lowerneck 13.285 -3.41157 -8.29571
upperneck -36.4086 -2.85065 7.38058
head -14.4205 -0.324018 4.78444
rclavicle 4.39314e-014 -9.54166e-015
rhumerus 56.2081 -10.2074 -43.7275
rradius 65.8003
rwrist 8.0709
rhand -31.1305 19.1573
rfingers 7.12502
rthumb -4.40913 -10.7768
lclavicle 4.39314e-014 -9.54166e-015
lhumerus 82.5515 -4.72446 43.4516
lradius 35.5349
lwrist -20.7279
lhand -33.4773 30.6699
lfingers 7.12502
lthumb -6.675 60.5446
rfemur -13.033 4.08702 25.1775
rtibia 17.3367
rfoot 3.8013 -8.57435
rtoes -13.3832
lfemur -45.4377 -12.6911 -9.49748
ltibia 21.4015
lfoot -10.8422 -10.1637
ltoes 1.38979
1163
root 32.7714 16.9085 -9.61432 -150.585 63.1122 181.624
lowerback -14.6017 1.19375 -6.68146
upperback -7.55399 3.03957 -0.610531
thorax -0.128742 1.97037 3.54154
lowerneck 13.6402 -3.46692 -8.13819
upperneck -36.8184 -2.92669 7.26593
head -14.6946 -0.337505 4.75376
rclavicle -9.30312e-014 4.41302e-014
rhumerus 56.8591 -10.5096 -45.1148
rradius 65.3531
rwrist 7.88074
rhand -30.8024 20.3264
rfingers 7.12502
rthumb -4.09233 -9.61405
lclavicle -9.30312e-014 4.41302e-014
lhumerus 82.6718 -4.62632 43.3079
lradius 35.5482
lwrist -20.5451
lhand -33.7023 30.7597
lfingers 7.12502
lthumb -6.89216 60.6275
rfemur -13.1089 4.17935 25.1345
rtibia 17.2818
rfoot 3.70491 -8.6461
rtoes -12.846
lfemur -45.5317 -12.665 -9.49356
ltibia 21.3854
lfoot -10.827 -10.0343
ltoes 1.25333
1164
root 32.7533 16.9125 -9.61715 -149.989 62.9247 182.332
lowerback -14.2995 1.29074 -6.076
upperback -7.60315 3.06348 -0.608944
thorax -0.305891 1.96977 3.19124
lowerneck 13.7663 -3.50822 -8.44369
upperneck -36.9277 -2.9358 7.67548
head -14.7524 -0.348514 4.99318
rclavicle -1.18774e-014 -1.63003e-014
rhumerus 57.5144 -10.5416 -46.3635
rradius 64.3879
rwrist 7.36109
rhand -31.4537 21.5144
rfingers 7.12502
rthumb -4.72123 -8.41301
lclavicle -1.18774e-014 -1.63003e-014
lhumerus 82.7824 -4.5664 43.0705
lradius 35.6112
lwrist -20.3076
lhand -33.6128 30.72
lfingers 7.12502
lthumb -6.80583 60.5906
rfemur -13.0775 3.33044 25.5253
rtibia 17.1628
rfoot 3.20421 -7.90867
rtoes -12.1578
lfemur -45.5777 -12.6879 -9.1454
ltibia 21.4477
lfoot -10.8189 -9.97482
ltoes 1.58466
1165
root 32.7657 16.9076 -9.611 -150.237 63.1165 181.804
lowerback -14.5304 1.20707 -6.39314
upperback -7.684 3.02479 -0.753631
thorax -0.276034 1.96506 3.22026
lowerneck 13.8784 -3.59415 -8.06276
upperneck -37.0299 -3.06909 7.37431
head -14.8319 -0.413783 4.8275
rclavicle -1.56046e-014 2.26615e-014
rhumerus 58.3233 -10.4338 -47.9134
rradius 63.2456
rwrist 7.71563
rhand -31.9485 22.3898
rfingers 7.12502
rthumb -5.19903 -7.52645
lclavicle -1.56046e-014 2.26615e-014
lhumerus 82.7793 -4.55543 42.5739
lradius 35.6661
lwrist -19.8137
lhand -33.9263 30.8012
lfingers 7.12502
lthumb -7.10838 60.6618
rfemur -13.2459 4.43389 25.16
rtibia 17.0896
rfoot 3.69818 -8.76782
rtoes -12.3208
lfemur -45.8142 -12.7022 -9.29219
ltibia 21.4533
lfoot -10.7861 -9.78271
ltoes 1.79236
1166
root 32.7474 16.9081 -9.61277 -149.752 62.9914 182.445
lowerback -13.9782 1.24249 -5.70085
upperback -7.8329 2.94201 -0.771306
thorax -0.676083 1.91679 2.77328
lowerneck 13.4982 -3.40775 -8.62054
upperneck -36.6141 -2.70808 8.03489
head -14.552 -0.295629 5.11684
rclavicle 1.59028e-014 -3.22031e-014
rhumerus 59.307 -10.0488 -49.4145
rradius 62.1977
rwrist 8.54261
rhand -32.5876 22.7882
rfingers 7.12502
rthumb -5.81605 -7.11198
lclavicle 1.59028e-014 -3.22031e-014
lhumerus 82.5686 -4.52577 42.1932
lradius 35.7922
lwrist -19.2532
lhand -34.383 31.3965
lfingers 7.12502
lthumb -7.5493 61.2418
rfemur -13.0982 3.84208 25.4959
rtibia 16.8891
rfoot 3.43121 -8.15737
rtoes -12.5245
lfemur -45.8466 -12.6749 -9.0588
ltibia 21.6322
lfoot -10.7122 -9.70367
ltoes 2.25263
1167
root 32.7604 16.9037 -9.60551 -149.941 63.2749 182.001
lowerback -14.3759 1.24749 -6.27797
upperback -7.88102 3.06246 -0.815305
thorax -0.560035 2.00023 3.08123
lowerneck 14.2258 -3.63505 -7.56522
upperneck -37.2249 -3.15441 6.97933
head -15.0255 -0.460327 4.60925
rclavicle 4.39811e-014 -1.35174e-014
rhumerus 59.9012 -9.86048 -49.9086
rradius 60.0196
rwrist 9.62265
rhand -33.1382 21.8109
rfingers 7.12502
rthumb -6.34759 -8.07395
lclavicle 4.39811e-014 -1.35174e-014
lhumerus 82.6481 -4.76046 42.5061
lradius 35.9482
lwrist -19.3811
lhand -34.0896 31.604
lfingers 7.12502
lthumb -7.2661 61.4592
rfemur -13.2414 5.21284 25.0965
rtibia 16.8056
rfoot 3.93366 -9.20558
rtoes -12.3129
lfemur -46.0348 -12.5798 -9.24236
ltibia 21.6723
lfoot -10.5945 -9.48269
ltoes 2.99824
1168
root 32.7418 16.9043 -9.60627 -149.211 63.1395 183.087
lowerback -13.7947 1.44861 -5.42886
upperback -7.94179 3.17431 -0.870582
thorax -0.886544 2.03283 2.53254
lowerneck 14.0721 -3.66541 -7.44469
upperneck -37.0241 -3.0505 7.27981
head -14.8949 -0.486961 4.68363
rclavicle -1.89342e-014 -1.63003e-014
rhumerus 60.72 -9.64654 -50.6147
rradius 57.469
rwrist 9.69309
rhand -32.0948 21.7857
rfingers 7.12502
rthumb -5.34028 -8.12703
lclavicle -1.89342e-014 -1.63003e-014
lhumerus 82.7784 -4.92026 42.5505
lradius 35.9542
lwrist -19.4194
lhand -33.9977 31.5279
lfingers 7.12502
lthumb -7.17736 61.3862
rfemur -12.9079 4.43153 25.6716
rtibia 16.581
rfoot 3.49002 -8.40976
rtoes -12.1873
lfemur -45.8683 -12.5022 -8.80935
ltibia 21.8511
lfoot -10.5959 -9.4169
ltoes 3.29499
1169
root 32.7384 16.9031 -9.60403 -149.445 63.424 182.667
lowerback -14.126 1.47968 -5.89081
upperback -7.84799 3.29409 -0.85663
thorax -0.652263 2.09959 2.83916
lowerneck 13.1706 -3.69684 -8.04322
upperneck -36.1968 -3.02407 7.92649
head -14.2595 -0.524652 4.97586
rclavicle -4.19436e-014 5.60573e-014
rhumerus 61.7953 -9.45683 -50.635
rradius 54.8593
rwrist 9.42088
rhand -31.222 22.1328
rfingers 7.12502
rthumb -4.49753 -7.79944
lclavicle -4.19436e-014 5.60573e-014
lhumerus 83.0676 -5.01837 43.3774
lradius 35.6914
lwrist -19.7246
lhand -33.9889 31.2955
lfingers 7.12502
lthumb -7.16883 61.1541
rfemur -13.015 4.25108 25.364
rtibia 16.4654
rfoot 3.36775 -8.09898
rtoes -12.3697
lfemur -46.0231 -12.4581 -9.05518
ltibia 21.9237
lfoot -10.5505 -9.24196
ltoes 3.17067
1170
root 32.7567 16.8916 -9.592 -149.167 63.5066 183.134
lowerback -14.2232 1.51883 -5.95057
upperback -7.99856 3.37186 -0.816454
thorax -0.774325 2.15639 2.92275
lowerneck 13.4069 -3.69868 -8.17699
upperneck -35.553 -3.08399 8.28055
head -13.9963 -0.645736 5.13121
rclavicle 5.41688e-014 -7.95139e-015
rhumerus 62.1499 -8.77716 -50.3678
rradius 51.7365
rwrist 10.3577
rhand -30.2312 20.8344
rfingers 7.12502
rthumb -3.54077 -9.11592
lclavicle 5.41688e-014 -7.95139e-015
lhumerus 82.9741 -5.64079 44.4058
lradius 35.2637
lwrist -20.7519
lhand -34.158 30.7059
lfingers 7.12502
lthumb -7.33206 60.5588
rfemur -12.7407 5.8365 25.5558
rtibia 16.3443
rfoot 4.08872 -9.349
rtoes -12.295
lfemur -45.9021 -12.2091 -8.86307
ltibia 22.0603
lfoot -10.5914 -9.25045
ltoes 3.52894
1171
root 32.7536 16.8912 -9.58919 -149.101 63.6633 183.209
lowerback -14.1658 1.47782 -5.88165
upperback -8.1188 3.31228 -0.871565
thorax -0.918727 2.13451 2.81177
lowerneck 13.6211 -3.77461 -7.54184
upperneck -35.3831 -3.23352 7.8531
head -13.9832 -0.764243 4.8649
rclavicle 3.32964e-014 2.0276e-014
rhumerus 63.2833 -8.86441 -51.9774
rradius 50.4933
rwrist 10.2364
rhand -27.9349 19.8263
rfingers 7.12502
rthumb -1.32303 -10.1493
lclavicle 3.32964e-014 2.0276e-014
lhumerus 82.8351 -5.65365 43.8317
lradius 34.8329
lwrist -20.5921
lhand -34.8126 30.6625
lfingers 7.12502
lthumb -7.96391 60.4924
rfemur -12.8123 5.84855 25.5213
rtibia 16.4291
rfoot 3.98668 -9.25145
rtoes -12.1404
lfemur -45.8822 -12.0999 -8.89706
ltibia 22.056
lfoot -10.4936 -9.22819
ltoes 4.10133
1172
root 32.7385 16.8945 -9.5948 -149.001 63.7775 183.315
lowerback -14.0043 1.61234 -5.57629
upperback -8.35282 3.45972 -1.10399
thorax -1.22976 2.21555 2.39819
lowerneck 14.1393 -3.90985 -6.72529
upperneck -35.3379 -3.40401 7.49455
head -14.0976 -0.920353 4.61826
rclavicle -2.7482e-014 5.96354e-015
rhumerus 63.3039 -8.89792 -52.6396
rradius 49.9522
rwrist 11.2189
rhand -28.1188 16.1315
rfingers 7.12502
rthumb -1.50062 -13.8429
lclavicle -2.7482e-014 5.96354e-015
lhumerus 82.9603 -6.31858 44.3315
lradius 33.9486
lwrist -21.3758
lhand -34.9945 30.281
lfingers 7.12502
lthumb -8.13951 60.1043
rfemur -12.9127 5.15922 25.5248
rtibia 16.4985
rfoot 3.55634 -8.59527
rtoes -11.873
lfemur -45.9228 -12.0321 -8.93661
ltibia 22.1115
lfoot -10.3724 -9.21853
ltoes 4.20507
1173
root 32.7462 16.8879 -9.58315 -148.955 63.9234 183.302
lowerback -14.5207 1.57505 -6.06923
upperback -8.19076 3.50308 -0.889739
thorax -0.836423 2.24308 2.93606
lowerneck 13.9438 -4.09115 -6.50007
upperneck -35.1776 -3.6809 7.30208
head -13.966 -1.0546 4.52271
rclavicle -3.97569e-016 -6.36111e-015
rhumerus 63.603 -8.50324 -51.6721
rradius 48.822
rwrist 12.7607
rhand -29.897 14.1675
rfingers 7.12502
rthumb -3.21801 -15.788
lclavicle -3.97569e-016 -6.36111e-015
lhumerus 83.0192 -6.41146 45.1093
lradius 33.5021
lwrist -22.0577
lhand -34.4293 30.3204
lfingers 7.12502
lthumb -7.59397 60.1641
rfemur -13.0397 5.88033 25.4532
rtibia 16.6433
rfoot 3.80561 -9.21999
rtoes -11.748
lfemur -45.9971 -11.8491 -8.98411
ltibia 22.1509
lfoot -10.3479 -9.25028
ltoes 3.7858
1174
root 32.7298 16.89 -9.58717 -148.854 64.0687 183.439
lowerback -14.4153 1.60378 -5.84784
upperback -8.3185 3.5121 -0.905369
thorax -1.01239 2.25186 2.78635
lowerneck 13.4274 -3.65766 -7.22682
upperneck -34.2519 -3.05488 7.994
head -13.4606 -0.830976 4.77788
rclavicle 2.9122e-014 2.66371e-014
rhumerus 64.2751 -8.2017 -51.6795
rradius 46.3476
rwrist 13.5191
rhand -30.8647 17.2515
rfingers 7.12502
rthumb -4.15251 -12.6878
lclavicle 2.9122e-014 2.66371e-014
lhumerus 82.6104 -6.61424 45.1427
lradius 33.5937
lwrist -22.5973
lhand -33.7108 31.3295
lfingers 7.12502
lthumb -6.90036 61.197
rfemur -13.1357 5.126 25.4903
rtibia 16.756
rfoot 3.44229 -8.46844
rtoes -12.1247
lfemur -45.9954 -11.7647 -9.02258
ltibia 22.2077
lfoot -10.3906 -9.21183
ltoes 3.39805
1175
root 32.7277 16.89 -9.58515 -148.722 64.2223 183.625
lowerback -14.5266 1.50144 -5.78379
upperback -8.32041 3.37572 -0.812739
thorax -0.944873 2.1816 2.837
lowerneck 13.5643 -3.62032 -6.55435
upperneck -34.329 -3.01703 7.42369
head -13.5652 -0.828068 4.43501
rclavicle 1.09282e-013 1.63003e-014
rhumerus 65.3709 -7.50815 -52.1561
rradius 44.0842
rwrist 13.5994
rhand -32.6105 17.9214
rfingers 7.12502
rthumb -5.83815 -11.9781
lclavicle 1.09282e-013 1.63003e-014
lhumerus 82.1404 -6.45499 45.9364
lradius 33.704
lwrist -22.3592
lhand -32.4494 30.2983
lfingers 7.12502
lthumb -5.68267 60.2021
rfemur -13.1611 4.98533 25.5294
rtibia 16.8341
rfoot 3.33264 -8.22699
rtoes -12.2288
lfemur -45.9779 -11.6835 -8.9802
ltibia 22.2878
lfoot -10.4327 -9.16515
ltoes 3.54408
1176
root 32.7274 16.8911 -9.58408 -148.591 64.3737 183.868
lowerback -14.6712 1.38815 -5.74029
upperback -8.18604 3.21748 -0.619575
thorax -0.720606 2.08919 3.00824
lowerneck 13.0547 -3.4614 -6.80352
upperneck -34.1439 -2.82643 7.38542
head -13.3856 -0.706721 4.40991
rclavicle 5.71506e-015 -2.34566e-014
rhumerus 66.1474 -6.86507 -51.892
rradius 42.8124
rwrist 12.8693
rhand -33.6606 17.9063
rfingers 7.12502
rthumb -6.85193 -11.9629
lclavicle 5.71506e-015 -2.34566e-014
lhumerus 81.9198 -6.0394 46.709
lradius 33.1183
lwrist -22.9288
lhand -32.7595 30.1914
lfingers 7.12502
lthumb -5.98206 60.087
rfemur -13.0948 5.03268 25.5646
rtibia 16.8565
rfoot 3.24301 -8.1584
rtoes -11.791
lfemur -45.8933 -11.5759 -8.94416
ltibia 22.3852
lfoot -10.462 -9.15193
ltoes 3.86192
